<svg width="25" height="24" viewBox="0 0 25 24" fill="none" xmlns="http://www.w3.org/2000/svg">
<path d="M21.7813 15.75C21.6969 15.5571 21.5602 15.3918 21.3866 15.2728C19.9297 14.2706 19.625 12.5325 19.625 11.25C19.625 9.73406 20.8138 8.38125 21.5234 7.71C21.6345 7.60487 21.723 7.47819 21.7834 7.33771C21.8439 7.19724 21.8751 7.04591 21.8751 6.89297C21.8751 6.74003 21.8439 6.5887 21.7834 6.44823C21.723 6.30775 21.6345 6.18107 21.5234 6.07594C20.2709 4.89094 18.2009 4.125 16.25 4.125C14.9254 4.12621 13.6272 4.49523 12.5 5.19094C11.1369 4.34414 9.52682 3.98503 7.9331 4.17237C6.33938 4.3597 4.85643 5.08239 3.72688 6.22219C3.03528 6.92856 2.4928 7.76682 2.13171 8.68709C1.77062 9.60736 1.59831 10.5908 1.625 11.5791C1.6641 13.2099 2.02769 14.8166 2.69457 16.3053C3.36144 17.7941 4.31823 19.1351 5.50907 20.25C6.27299 20.9734 7.2854 21.3761 8.3375 21.375H16.5584C17.1215 21.3758 17.6787 21.2609 18.1955 21.0376C18.7124 20.8142 19.1778 20.4871 19.5631 20.0766C20.2338 19.357 20.8132 18.5576 21.2881 17.6962C21.4353 17.4262 21.5694 17.1609 21.6763 16.9078C21.8253 16.5628 21.98 16.2066 21.7813 15.75ZM17.9159 18.5456C17.7414 18.73 17.5308 18.8765 17.2973 18.9762C17.0638 19.0759 16.8123 19.1265 16.5584 19.125H8.3375C7.86005 19.1267 7.40022 18.9447 7.05313 18.6169C6.07846 17.7044 5.29541 16.6069 4.74973 15.3883C4.20405 14.1698 3.90669 12.8548 3.875 11.52C3.85598 10.8354 3.97482 10.1539 4.22445 9.51614C4.47409 8.87837 4.84942 8.2973 5.32813 7.8075C5.77386 7.35221 6.30631 6.99087 6.89404 6.74483C7.48177 6.49879 8.11285 6.37304 8.75 6.375H8.8175C9.90186 6.38676 10.9507 6.76323 11.795 7.44375C11.9945 7.6035 12.2425 7.69055 12.4981 7.69055C12.7537 7.69055 13.0017 7.6035 13.2013 7.44375C14.0643 6.74737 15.1411 6.3699 16.25 6.375C17.2248 6.38653 18.1837 6.624 19.0513 7.06875C17.9619 8.40563 17.375 9.85594 17.375 11.25C17.375 13.4372 18.0753 15.2709 19.3672 16.5178C18.9725 17.2532 18.4844 17.9345 17.915 18.5447L17.9159 18.5456ZM12.5703 1.21875C12.9122 0.778014 13.3403 0.411507 13.8284 0.141563C14.0895 -0.00314568 14.3974 -0.0382169 14.6843 0.0440647C14.9712 0.126346 15.2137 0.319241 15.3584 0.580313C15.5032 0.841386 15.5382 1.14925 15.4559 1.43618C15.3737 1.72311 15.1808 1.9656 14.9197 2.11031C14.6972 2.2332 14.5022 2.40039 14.3469 2.60156C14.2561 2.71821 14.1432 2.81584 14.0147 2.88886C13.8861 2.96189 13.7445 3.00888 13.5978 3.02716C13.3016 3.06409 13.0028 2.98181 12.7672 2.79844C12.5316 2.61507 12.3785 2.34562 12.3416 2.04937C12.3047 1.75312 12.3869 1.45434 12.5703 1.21875Z" fill="#1A212B"/>
</svg>
